<svg width="200" height="200" viewBox="0 0 200 200" fill="none" xmlns="http://www.w3.org/2000/svg">
<rect width="200" height="200" rx="20" fill="#0A0A23"/>
<path d="M36.8594 152.062C36.8594 151.656 36.7865 151.276 36.6406 150.922C36.5052 150.568 36.2708 150.234 35.9375 149.922C35.5938 149.62 35.1458 149.344 34.5938 149.094C34.0521 148.833 33.375 148.594 32.5625 148.375C31.3021 148.031 30.1927 147.615 29.2344 147.125C28.2865 146.635 27.5104 146.099 26.9062 145.516C26.3021 144.932 25.8438 144.286 25.5312 143.578C25.2292 142.87 25.0781 142.099 25.0781 141.266C25.0781 140.307 25.2812 139.438 25.6875 138.656C26.0938 137.875 26.6562 137.208 27.375 136.656C28.0938 136.104 28.9427 135.682 29.9219 135.391C30.901 135.089 31.9635 134.938 33.1094 134.938C34.2969 134.938 35.3802 135.109 36.3594 135.453C37.349 135.797 38.1979 136.276 38.9062 136.891C39.6146 137.516 40.1667 138.255 40.5625 139.109C40.9583 139.964 41.1562 140.901 41.1562 141.922H36.875C36.8542 141.411 36.7604 140.943 36.5938 140.516C36.4375 140.089 36.2031 139.719 35.8906 139.406C35.5677 139.104 35.1667 138.87 34.6875 138.703C34.2188 138.526 33.6667 138.438 33.0312 138.438C32.4479 138.438 31.9271 138.51 31.4688 138.656C31.0208 138.792 30.6406 138.984 30.3281 139.234C30.0156 139.495 29.776 139.802 29.6094 140.156C29.4531 140.5 29.375 140.875 29.375 141.281C29.375 141.708 29.4792 142.094 29.6875 142.438C29.9062 142.781 30.2188 143.089 30.625 143.359C31.0312 143.641 31.5208 143.896 32.0938 144.125C32.6771 144.354 33.3333 144.568 34.0625 144.766C34.8438 144.984 35.5885 145.25 36.2969 145.562C37.0052 145.875 37.6562 146.234 38.25 146.641C39.1458 147.307 39.8594 148.083 40.3906 148.969C40.9219 149.854 41.1875 150.875 41.1875 152.031C41.1875 153.031 40.9844 153.922 40.5781 154.703C40.1823 155.474 39.6302 156.125 38.9219 156.656C38.2135 157.198 37.3698 157.609 36.3906 157.891C35.4115 158.161 34.3438 158.297 33.1875 158.297C32.0521 158.297 30.9271 158.13 29.8125 157.797C28.7083 157.453 27.7448 156.953 26.9219 156.297C26.1406 155.651 25.5208 154.891 25.0625 154.016C24.6146 153.141 24.3906 152.115 24.3906 150.938H28.7031C28.724 151.625 28.8438 152.214 29.0625 152.703C29.2812 153.193 29.5885 153.594 29.9844 153.906C30.3698 154.219 30.8333 154.448 31.375 154.594C31.9271 154.74 32.5312 154.812 33.1875 154.812C33.7708 154.812 34.2865 154.745 34.7344 154.609C35.1927 154.474 35.5781 154.286 35.8906 154.047C36.2031 153.807 36.4427 153.521 36.6094 153.188C36.776 152.844 36.8594 152.469 36.8594 152.062ZM46.485 141.094L46.61 143.141C46.9329 142.411 47.3756 141.839 47.9381 141.422C48.511 140.995 49.2038 140.781 50.0163 140.781C50.4121 140.781 50.7663 140.828 51.0788 140.922C51.3913 141.016 51.6621 141.161 51.8913 141.359C52.0683 141.505 52.2194 141.682 52.3444 141.891C52.4798 142.089 52.5944 142.318 52.6881 142.578C52.834 142.328 52.9954 142.104 53.1725 141.906C53.36 141.698 53.5631 141.521 53.7819 141.375C54.0527 141.188 54.36 141.042 54.7038 140.938C55.0475 140.833 55.4225 140.781 55.8288 140.781C56.3392 140.781 56.8131 140.875 57.2506 141.062C57.6985 141.25 58.0892 141.547 58.4225 141.953C58.7454 142.37 58.9954 142.906 59.1725 143.562C59.36 144.208 59.4538 145 59.4538 145.938V158H55.5006V145.922C55.5006 145.599 55.4642 145.333 55.3913 145.125C55.3288 144.917 55.2402 144.75 55.1256 144.625C55.011 144.51 54.8756 144.432 54.7194 144.391C54.5735 144.339 54.4225 144.312 54.2663 144.312C54.0996 144.312 53.9485 144.333 53.8131 144.375C53.6881 144.417 53.5683 144.474 53.4538 144.547C53.36 144.62 53.2767 144.703 53.2038 144.797C53.1308 144.88 53.0683 144.979 53.0163 145.094C53.0163 145.115 53.0163 145.161 53.0163 145.234C53.0163 145.307 53.0163 145.406 53.0163 145.531V158H49.1881V145.906C49.1881 145.583 49.1569 145.318 49.0944 145.109C49.0319 144.901 48.9485 144.74 48.8444 144.625C48.7298 144.51 48.5996 144.432 48.4538 144.391C48.3079 144.339 48.1517 144.312 47.985 144.312C47.7975 144.312 47.6308 144.344 47.485 144.406C47.3392 144.469 47.209 144.557 47.0944 144.672C47.011 144.755 46.9381 144.854 46.8756 144.969C46.8131 145.083 46.7558 145.208 46.7038 145.344V158H42.7506V141.094H46.485ZM70.5638 158.312C69.2617 158.312 68.0794 158.099 67.0169 157.672C65.9544 157.245 65.0429 156.661 64.2825 155.922C63.5221 155.193 62.9335 154.333 62.5169 153.344C62.1106 152.344 61.9075 151.276 61.9075 150.141V149.516C61.9075 148.224 62.1106 147.047 62.5169 145.984C62.9231 144.911 63.4908 143.99 64.22 143.219C64.9492 142.448 65.8138 141.849 66.8138 141.422C67.8138 140.995 68.9023 140.781 70.0794 140.781C71.2981 140.781 72.3815 140.984 73.3294 141.391C74.2877 141.786 75.1002 142.349 75.7669 143.078C76.4231 143.807 76.9231 144.688 77.2669 145.719C77.6106 146.74 77.7825 147.87 77.7825 149.109V150.953H66.3138V151C66.4596 151.677 66.6471 152.224 66.8763 152.641C67.1054 153.047 67.4127 153.417 67.7981 153.75C68.194 154.094 68.6471 154.359 69.1575 154.547C69.6679 154.734 70.2252 154.828 70.8294 154.828C71.6835 154.828 72.5117 154.667 73.3138 154.344C74.1158 154.021 74.7669 153.536 75.2669 152.891L77.4388 155.234C76.8867 156.016 76.0117 156.724 74.8138 157.359C73.6158 157.995 72.1992 158.312 70.5638 158.312ZM70.0481 144.297C69.5585 144.297 69.1106 144.385 68.7044 144.562C68.2981 144.729 67.944 144.974 67.6419 145.297C67.3294 145.62 67.069 146.005 66.8606 146.453C66.6523 146.901 66.496 147.401 66.3919 147.953H73.5169V147.609C73.5169 147.151 73.4335 146.719 73.2669 146.312C73.1002 145.906 72.871 145.552 72.5794 145.25C72.2877 144.958 71.9283 144.729 71.5013 144.562C71.0846 144.385 70.6002 144.297 70.0481 144.297ZM81.8456 134H91.2988V154.469H96.1425V158H81.8456V154.469H86.9081V137.547H81.8456V134ZM100.424 134H109.878V154.469H114.721V158H100.424V154.469H105.487V137.547H100.424V134ZM132.378 148.578H122.628V158H118.222V135.25H133.597V138.828H122.628V145.016H132.378V148.578ZM137.832 141.094H147.035V154.469H151.613V158H137.832V154.469H142.644V144.641H137.832V141.094ZM142.332 136.766C142.332 136.432 142.389 136.125 142.504 135.844C142.629 135.552 142.801 135.302 143.019 135.094C143.238 134.896 143.499 134.74 143.801 134.625C144.113 134.51 144.457 134.453 144.832 134.453C145.603 134.453 146.212 134.672 146.66 135.109C147.118 135.536 147.348 136.089 147.348 136.766C147.348 137.443 147.118 138 146.66 138.438C146.212 138.865 145.603 139.078 144.832 139.078C144.457 139.078 144.113 139.021 143.801 138.906C143.499 138.792 143.238 138.63 143.019 138.422C142.801 138.224 142.629 137.984 142.504 137.703C142.389 137.411 142.332 137.099 142.332 136.766ZM162.989 146.375L166.708 141.094H171.379L165.708 149.391L171.583 158H166.895L163.004 152.469L159.145 158H154.442L160.317 149.391L154.661 141.094H159.333L162.989 146.375Z" fill="white"/>
<path d="M101.868 32V45.7256C113.759 46.8411 123.228 56.2631 124.422 68.1318H138V72.8682H124.459C123.411 84.8947 113.873 94.4826 101.868 95.6084V109H97.1318V95.6084C85.1274 94.4826 75.5887 84.8947 74.541 72.8682H61V68.1318H74.5781C75.7716 56.2631 85.2408 46.8411 97.1318 45.7256V32H101.868ZM99.5 50.3457C93.8846 50.3457 88.8145 52.6171 85.1309 56.2979C81.4507 59.9814 79.1797 65.0511 79.1797 70.666C79.1798 76.2812 81.4512 81.3506 85.1318 85.0342H85.1309C88.8145 88.7149 93.8846 90.9854 99.5 90.9854C105.115 90.9854 110.185 88.7147 113.868 85.0342L114.209 84.6846C117.688 81.033 119.82 76.1057 119.82 70.666C119.82 65.0506 117.549 59.9805 113.868 56.2969C110.185 52.6165 105.115 50.3457 99.5 50.3457ZM99.5029 61.0557C104.812 61.0557 109.113 65.3609 109.113 70.666C109.113 75.9741 104.808 80.2793 99.5029 80.2793C94.198 80.2792 89.8898 75.9745 89.8896 70.666C89.8896 65.3572 94.195 61.0557 99.5029 61.0557Z" fill="white" stroke="white" stroke-width="2"/>
</svg>
