<svg width="16" height="16" viewBox="0 0 16 16" fill="none" xmlns="http://www.w3.org/2000/svg">
<path d="M7 2.41421H4.2C3.07989 2.41421 2.51984 2.41421 2.09202 2.6322C1.71569 2.82395 1.40973 3.12991 1.21799 3.50623C1 3.93406 1 4.49411 1 5.61421V11.2142C1 12.3343 1 12.8944 1.21799 13.3222C1.40973 13.6985 1.71569 14.0045 2.09202 14.1962C2.51984 14.4142 3.07989 14.4142 4.2 14.4142H9.8C10.9201 14.4142 11.4801 14.4142 11.908 14.1962C12.2843 14.0045 12.5903 13.6985 12.782 13.3222C13 12.8944 13 12.3343 13 11.2142V8.41423M6.11635 10.4142V10.4142C5.49981 10.4142 4.99998 9.91443 4.99998 9.29789V9.29789C4.99998 8.97176 4.99998 8.80869 5.03682 8.65523C5.06949 8.51916 5.12336 8.38916 5.19646 8.26983C5.27892 8.13529 5.39422 8.01996 5.62482 7.78936L12 1.41421C12.5523 0.861926 13.4477 0.861933 14 1.41421C14.5523 1.9665 14.5523 2.86193 14 3.41421L7.62487 9.78936C7.39427 10.02 7.27893 10.1353 7.1444 10.2178C7.02507 10.2908 6.895 10.3447 6.759 10.3774C6.60553 10.4142 6.44247 10.4142 6.11635 10.4142Z" stroke="black" stroke-width="2" stroke-linecap="round" stroke-linejoin="round"/>
</svg>
