<svg width="34" height="34" viewBox="0 0 34 34" fill="none" xmlns="http://www.w3.org/2000/svg">
<path d="M18.084 0.5V6.36328C23.139 6.86914 27.1605 10.8706 27.6992 15.916H33.5V18.084H27.7158C27.2383 23.1968 23.1873 27.2688 18.084 27.7793V33.5H15.916V27.7793C10.8127 27.2688 6.76171 23.1968 6.28418 18.084H0.5V15.916H6.30078C6.83953 10.8706 10.861 6.86914 15.916 6.36328V0.5H18.084ZM17 8.47461C14.6245 8.47461 12.4794 9.43412 10.9209 10.9912L10.9219 10.9922C9.36467 12.5506 8.40343 14.6948 8.40332 17.0703C8.40332 19.446 9.36459 21.5909 10.9219 23.1494H10.9209C12.4794 24.7067 14.6243 25.667 17 25.667C19.3754 25.667 21.5196 24.7065 23.0781 23.1494C24.6354 21.5909 25.5967 19.446 25.5967 17.0703C25.5966 14.6948 24.6353 12.5506 23.0781 10.9922V10.9912C21.5197 9.4344 19.3752 8.47461 17 8.47461ZM17.001 12.8975C19.3064 12.8975 21.1746 14.7665 21.1748 17.0703C21.1748 19.3756 19.3052 21.2461 17.001 21.2461C14.6971 21.2459 12.8262 19.3758 12.8262 17.0703C12.8264 14.7649 14.6961 12.8976 17.001 12.8975Z" fill="white" stroke="white"/>
</svg>
